<?xml version="1.0" encoding="UTF-8"?>
<svg version="1.1" xmlns="http://www.w3.org/2000/svg" width="192" height="192">
<path d="M0 0 C63.36 0 126.72 0 192 0 C192 63.36 192 126.72 192 192 C128.64 192 65.28 192 0 192 C0 128.64 0 65.28 0 0 Z " fill="#FEFEFE" transform="translate(0,0)"/>
<path d="M0 0 C6.46623426 3.71138889 10.71339384 7.66881293 13.140625 14.828125 C14.22966866 24.71816106 12.58886318 30.65576774 7.140625 38.828125 C8.11902344 40.47748047 8.11902344 40.47748047 9.1171875 42.16015625 C13.35956039 49.32973391 17.5759512 56.49851947 21.5234375 63.8359375 C27.88150282 75.59989411 34.4703338 87.23895984 41.140625 98.828125 C41.96304688 98.77011719 42.78546875 98.71210937 43.6328125 98.65234375 C51.53415205 98.33300555 57.77270536 98.81654925 64.140625 103.828125 C70.2042024 111.0054207 71.80707882 116.54806991 71.140625 125.828125 C69.67097991 133.6212889 64.69184253 138.20698825 58.515625 142.765625 C51.53347938 144.96370788 43.87289288 145.15768079 37.203125 141.890625 C31.70930407 138.35960565 28.184961 132.961133 26.140625 126.828125 C25.43531859 119.02350488 25.94400376 113.49334697 30.140625 106.828125 C30.800625 106.168125 31.460625 105.508125 32.140625 104.828125 C31.79434884 100.8525187 30.28029441 97.90497072 28.33203125 94.46875 C27.75469238 93.44370361 27.17735352 92.41865723 26.58251953 91.36254883 C25.96231934 90.27868896 25.34211914 89.1948291 24.703125 88.078125 C24.07003418 86.96010498 23.43694336 85.84208496 22.78466797 84.69018555 C18.40061413 76.97010087 13.93807465 69.29815906 9.40625 61.6640625 C5.90737919 55.76311717 2.52583028 49.79478571 -0.859375 43.828125 C-6.21705061 42.81109725 -11.60201384 41.96498546 -16.859375 43.828125 C-21.14576687 47.46464897 -23.24546395 53.16300503 -25.56835938 58.15380859 C-27.89522904 62.97387863 -30.63079012 67.56507005 -33.296875 72.203125 C-34.39169389 74.15434856 -35.48544594 76.10617109 -36.578125 78.05859375 C-38.72679269 81.87068408 -40.93302042 85.63790744 -43.203125 89.37890625 C-43.72463135 90.24660645 -44.2461377 91.11430664 -44.78344727 92.00830078 C-45.77058593 93.643712 -46.7705435 95.27147403 -47.78491211 96.89013672 C-48.43858765 97.9789917 -48.43858765 97.9789917 -49.10546875 99.08984375 C-49.68832642 100.03283325 -49.68832642 100.03283325 -50.28295898 100.99487305 C-51.08525377 102.8874032 -51.08525377 102.8874032 -50.06274414 104.94067383 C-48.86821575 106.87747664 -48.86821575 106.87747664 -47.359375 108.765625 C-43.47822879 114.10220103 -43.11283883 119.40599975 -43.859375 125.828125 C-45.89856708 133.76548659 -50.89027008 138.78122528 -57.7578125 142.9921875 C-63.06950539 145.10501702 -69.38162395 144.6450402 -74.7265625 142.8828125 C-79.50907679 140.62637401 -83.00281441 138.39862195 -85.859375 133.828125 C-86.375 133.10109375 -86.890625 132.3740625 -87.421875 131.625 C-90.25936947 126.10422272 -89.60630089 119.83491555 -88.859375 113.828125 C-86.50167817 107.27280322 -81.66402939 103.15245614 -75.6640625 99.8515625 C-70.79249339 98.07391472 -65.96011022 98.1905331 -60.859375 98.828125 C-60.199375 99.158125 -59.539375 99.488125 -58.859375 99.828125 C-58.59237793 99.12051025 -58.32538086 98.41289551 -58.05029297 97.68383789 C-56.80866186 94.70651951 -55.36766045 91.95830113 -53.8046875 89.13671875 C-53.19536377 88.03626221 -52.58604004 86.93580566 -51.95825195 85.80200195 C-51.3005535 84.62306426 -50.64258893 83.44427498 -49.984375 82.265625 C-49.65222992 81.66841644 -49.32008484 81.07120789 -48.97787476 80.4559021 C-44.06284319 71.62289709 -39.00976577 62.88702091 -33.71728516 54.27319336 C-31.55246347 50.73577439 -29.4330392 47.17847674 -27.46484375 43.52734375 C-27.1299292 42.91076904 -26.79501465 42.29419434 -26.44995117 41.65893555 C-25.69967989 39.33306357 -26.05497519 38.10774285 -26.859375 35.828125 C-27.68774184 34.23114237 -28.54415275 32.64852265 -29.421875 31.078125 C-32.32876819 25.2981397 -32.84177631 21.53813464 -31.1953125 15.3203125 C-29.07109151 9.13236441 -26.27399377 5.44982365 -20.859375 1.828125 C-19.5290625 0.9 -19.5290625 0.9 -18.171875 -0.046875 C-12.10620161 -2.10691502 -5.99955068 -2.45883225 0 0 Z " fill="#32AAF8" transform="translate(104.859375,20.171875)"/>
<path d="M0 0 C-1.06551449 2.48620049 -2.03837059 4.03717151 -4 5.9375 C-7.59362775 9.64342862 -8.11965161 12.90918009 -8.1875 17.9375 C-8.10319437 21.70315126 -7.93969763 25.33517923 -7 29 C-6.34 29.33 -5.68 29.66 -5 30 C-5.33 30.99 -5.66 31.98 -6 33 C-12.39435109 21.85555953 -12.39435109 21.85555953 -11 15 C-6.66820276 0 -6.66820276 0 0 0 Z " fill="#549DE9" transform="translate(84,23)"/>
<path d="M0 0 C-1.55603771 3.81936528 -3.95604931 6.26044438 -7 9 C-7.66 9 -8.32 9 -9 9 C-7.67183131 4.6532661 -5.0855272 0 0 0 Z " fill="#439FEF" transform="translate(28,122)"/>
</svg>
